# xmcd
#
# Track frame offsets: 
#        150
#        19902
#        45425
#        56550
#        76167
#        90832
#        114015
#        124987
#
# Disc length: 1974 seconds
#
# Revision: 5
# Processed by: cddbd v1.5.2PL0 Copyright (c) Steve Scherf et al.
# Submitted via: ExactAudioCopyFreeDBPlugin 1.0
#
DISCID=5107b408
DTITLE=John Lee Hooker - It Serves You Right To Suffer (Remastered von
DTITLE=New York City 1965-11-23)
DYEAR=1999
DGENRE=Blues
TTITLE0=Shake It Baby
TTITLE1=Country Boy
TTITLE2=Bottle Up and Go
TTITLE3=You're Wrong
TTITLE4=Sugar Mama
TTITLE5=Decoration Day
TTITLE6=Money
TTITLE7=It Serves You Right To Suffer
EXTD=
EXTT0=
EXTT1=
EXTT2=
EXTT3=
EXTT4=
EXTT5=
EXTT6=
EXTT7=
PLAYORDER=
